<?xml version="1.0" encoding="utf-8"?>
<!-- Generator: Adobe Illustrator 26.0.0, SVG Export Plug-In . SVG Version: 6.00 Build 0)  -->
<svg version="1.1" id="_x2D__Final" xmlns="http://www.w3.org/2000/svg" xmlns:xlink="http://www.w3.org/1999/xlink" x="0px"
	 y="0px" viewBox="0 0 1024 1024" style="enable-background:new 0 0 1024 1024;" xml:space="preserve">
<style type="text/css">
	.st0{fill:#FFFFFF;}
</style>
<path d="M874,1024H150C67.2,1024,0,956.8,0,874V150C0,67.2,67.2,0,150,0h724c82.8,0,150,67.2,150,150v724
	C1024,956.8,956.8,1024,874,1024z"/>
<g>
	<g>
		<rect x="176.7" y="807.6" class="st0" width="193.6" height="12"/>
	</g>
	<g>
		<rect x="263.2" y="235.4" class="st0" width="12" height="578.2"/>
	</g>
	<g>
		<path class="st0" d="M767.4,819.6H649.7l-1.7-3.1L306.9,192.4h-94.2v-12h215.1l1.7,3.2L767.4,819.6z M656.8,807.6h90.6
			L420.6,192.4h-100L656.8,807.6z"/>
	</g>
	<g>
		<path class="st0" d="M745.9,843.6H628.2l-1.7-3.1L285.4,216.4h-94.2v-12h215.1l1.7,3.2L745.9,843.6z M635.3,831.6H726L399.2,216.4
			h-100L635.3,831.6z"/>
	</g>
	<g>
		<rect x="653.7" y="182" class="st0" width="193.6" height="12"/>
	</g>
	<g>
		<rect x="748.8" y="188" class="st0" width="12" height="578.2"/>
	</g>
</g>
</svg>
