<?xml version="1.0" encoding="utf-8"?>
<!-- Generator: Adobe Illustrator 26.0.0, SVG Export Plug-In . SVG Version: 6.00 Build 0)  -->
<svg version="1.1" id="_x2D__Final" xmlns="http://www.w3.org/2000/svg" xmlns:xlink="http://www.w3.org/1999/xlink" x="0px"
	 y="0px" viewBox="0 0 1024 1024" style="enable-background:new 0 0 1024 1024;" xml:space="preserve">
<style type="text/css">
	.st0{fill:#FFFFFF;}
</style>
<g>
	<g>
		<rect x="0" y="963.4" class="st0" width="295.6" height="18.3"/>
	</g>
	<g>
		<rect x="132.1" y="89.6" class="st0" width="18.3" height="882.9"/>
	</g>
	<g>
		<path class="st0" d="M902,981.7H722.3l-2.6-4.7L198.8,24H55V5.6h328.5l2.6,4.9L902,981.7z M733.1,963.4h138.3L372.4,24H219.7
			L733.1,963.4z"/>
	</g>
	<g>
		<path class="st0" d="M869.2,1018.4H689.4l-2.6-4.7L166,60.6H22.1V42.3h328.5l2.6,4.9L869.2,1018.4z M700.3,1000h138.5l-499-939.4
			H187.1L700.3,1000z"/>
	</g>
	<g>
		<rect x="728.4" y="8.1" class="st0" width="295.6" height="18.3"/>
	</g>
	<g>
		<rect x="873.6" y="17.3" class="st0" width="18.3" height="882.9"/>
	</g>
</g>
</svg>
